<svg xmlns="http://www.w3.org/2000/svg" viewBox="0 0 100 100">
  <!-- Fitness Pattern SVG -->
  <style>
    .pattern-primary { fill: #5046e5; opacity: 0.1; }
    .pattern-secondary { fill: #ff6b6b; opacity: 0.1; }
    .pattern-accent { fill: #38b2ac; opacity: 0.1; }
  </style>
  
  <!-- Dumbbells Pattern -->
  <g transform="translate(10, 10) scale(0.2)">
    <rect class="pattern-primary" x="0" y="10" width="20" height="40" rx="5" />
    <rect class="pattern-accent" x="20" y="25" width="10" height="10" />
    <rect class="pattern-secondary" x="30" y="27" width="40" height="6" rx="3" />
    <rect class="pattern-accent" x="70" y="25" width="10" height="10" />
    <rect class="pattern-primary" x="80" y="10" width="20" height="40" rx="5" />
  </g>
  
  <g transform="translate(60, 30) scale(0.2)">
    <rect class="pattern-primary" x="0" y="10" width="20" height="40" rx="5" />
    <rect class="pattern-accent" x="20" y="25" width="10" height="10" />
    <rect class="pattern-secondary" x="30" y="27" width="40" height="6" rx="3" />
    <rect class="pattern-accent" x="70" y="25" width="10" height="10" />
    <rect class="pattern-primary" x="80" y="10" width="20" height="40" rx="5" />
  </g>
  
  <!-- Kettlebell Pattern -->
  <g transform="translate(20, 60) scale(0.15)">
    <circle class="pattern-secondary" cx="50" cy="80" r="40" />
    <rect class="pattern-primary" x="30" y="10" width="40" height="30" rx="5" />
    <path class="pattern-primary" d="M30,40 C30,40 30,60 50,60 C70,60 70,40 70,40 L70,10 C70,10 70,0 50,0 C30,0 30,10 30,10 Z" />
  </g>
  
  <g transform="translate(70, 70) scale(0.15)">
    <circle class="pattern-secondary" cx="50" cy="80" r="40" />
    <rect class="pattern-primary" x="30" y="10" width="40" height="30" rx="5" />
    <path class="pattern-primary" d="M30,40 C30,40 30,60 50,60 C70,60 70,40 70,40 L70,10 C70,10 70,0 50,0 C30,0 30,10 30,10 Z" />
  </g>
  
  <!-- Stopwatch Pattern -->
  <g transform="translate(40, 20) scale(0.15)">
    <circle class="pattern-accent" cx="50" cy="60" r="50" />
    <circle fill="white" cx="50" cy="60" r="45" />
    <circle class="pattern-primary" cx="50" cy="60" r="5" />
    <rect class="pattern-primary" x="48" y="20" width="4" height="40" rx="2" transform="rotate(-45, 50, 60)" />
    <rect class="pattern-primary" x="40" y="0" width="20" height="10" rx="5" />
  </g>
</svg>