<svg xmlns="http://www.w3.org/2000/svg" viewBox="0 0 800 800">
  <!-- Yoga Woman SVG -->
  <style>
    .yoga-figure { fill: #5046e5; }
    .yoga-mat { fill: #ff6b6b; }
  </style>
  
  <!-- Yoga Mat -->
  <rect class="yoga-mat" x="150" y="600" width="500" height="50" rx="10" />
  
  <!-- Yoga Woman Figure -->
  <path class="yoga-figure" d="M400 300c15.5 0 28-12.5 28-28s-12.5-28-28-28-28 12.5-28 28 12.5 28 28 28zm-60 72c0-33.1 26.9-60 60-60s60 26.9 60 60v60h-40l-10 180h-20l-10-180h-40v-60zm-30 60h30c-5.5 0-10-4.5-10-10v-50c0-5.5 4.5-10 10-10h120c5.5 0 10 4.5 10 10v50c0 5.5-4.5 10-10 10h30c5.5 0 10 4.5 10 10v110c0 5.5-4.5 10-10 10s-10-4.5-10-10v-100h-20v100c0 5.5-4.5 10-10 10s-10-4.5-10-10v-100h-20v100c0 5.5-4.5 10-10 10s-10-4.5-10-10v-100h-20v100c0 5.5-4.5 10-10 10s-10-4.5-10-10v-100h-20v100c0 5.5-4.5 10-10 10s-10-4.5-10-10v-110c0-5.5 4.5-10 10-10z"/>
  
  <!-- Yoga Pose - Tree Pose -->
  <path class="yoga-figure" d="M400 450c-16.5 0-30 13.5-30 30s13.5 30 30 30 30-13.5 30-30-13.5-30-30-30zm-60 30c0-33.1 26.9-60 60-60s60 26.9 60 60c0 33.1-26.9 60-60 60s-60-26.9-60-60zm30 0c0 16.5 13.5 30 30 30s30-13.5 30-30-13.5-30-30-30-30 13.5-30 30z"/>
</svg>